<svg xmlns="http://www.w3.org/2000/svg" viewBox="0 0 360 250" width="360" height="250" role="img" aria-label="Cross-section of one quadrant of the CMS detector with 300 simulated long-lived particle decays at a proper lifetime of one metre, coloured by the detector region that could observe them.">
<rect x="22.0" y="197.9" width="78.9" height="32.1" fill="#0284c7" fill-opacity="0.045" stroke="#0284c7" stroke-opacity="0.42" stroke-width="0.9"/>
<rect x="22.0" y="143.8" width="116.8" height="48.5" fill="#c2740a" fill-opacity="0.045" stroke="#c2740a" stroke-opacity="0.42" stroke-width="0.9"/>
<rect x="114.0" y="143.8" width="74.5" height="77.4" fill="#c2740a" fill-opacity="0.045" stroke="#c2740a" stroke-opacity="0.42" stroke-width="0.9"/>
<rect x="22.0" y="14.4" width="192.8" height="98.7" fill="#db2777" fill-opacity="0.045" stroke="#db2777" stroke-opacity="0.42" stroke-width="0.9"/>
<rect x="188.5" y="25.5" width="151.9" height="178.2" fill="#db2777" fill-opacity="0.045" stroke="#db2777" stroke-opacity="0.42" stroke-width="0.9"/>
<line x1="22.0" y1="230.0" x2="343.3" y2="230.0" stroke="#94a3b8" stroke-opacity="0.5" stroke-width="1" stroke-dasharray="3 3"/>
<circle cx="113.7" cy="113.6" r="1.15" fill="#94a3b8" fill-opacity="0.32"/>
<circle cx="109.1" cy="142.7" r="1.15" fill="#94a3b8" fill-opacity="0.32"/>
<circle cx="27.7" cy="197.7" r="1.15" fill="#94a3b8" fill-opacity="0.32"/>
<circle cx="252.1" cy="17.7" r="1.15" fill="#94a3b8" fill-opacity="0.32"/>
<circle cx="166.1" cy="117.1" r="1.15" fill="#94a3b8" fill-opacity="0.32"/>
<circle cx="23.6" cy="132.1" r="1.15" fill="#94a3b8" fill-opacity="0.32"/>
<circle cx="128.7" cy="132.0" r="1.15" fill="#94a3b8" fill-opacity="0.32"/>
<circle cx="80.5" cy="193.7" r="1.15" fill="#94a3b8" fill-opacity="0.32"/>
<circle cx="71.2" cy="125.8" r="1.15" fill="#94a3b8" fill-opacity="0.32"/>
<circle cx="232.6" cy="24.4" r="1.15" fill="#94a3b8" fill-opacity="0.32"/>
<circle cx="102.3" cy="198.9" r="1.15" fill="#94a3b8" fill-opacity="0.32"/>
<circle cx="109.4" cy="142.7" r="1.15" fill="#94a3b8" fill-opacity="0.32"/>
<circle cx="275.1" cy="222.0" r="1.15" fill="#94a3b8" fill-opacity="0.32"/>
<circle cx="254.3" cy="18.5" r="1.15" fill="#94a3b8" fill-opacity="0.32"/>
<circle cx="80.8" cy="122.5" r="1.15" fill="#94a3b8" fill-opacity="0.32"/>
<circle cx="53.6" cy="141.2" r="1.15" fill="#94a3b8" fill-opacity="0.32"/>
<circle cx="62.2" cy="115.9" r="1.15" fill="#94a3b8" fill-opacity="0.32"/>
<circle cx="52.3" cy="120.5" r="1.15" fill="#94a3b8" fill-opacity="0.32"/>
<circle cx="197.0" cy="212.5" r="1.15" fill="#94a3b8" fill-opacity="0.32"/>
<circle cx="39.3" cy="141.3" r="1.15" fill="#94a3b8" fill-opacity="0.32"/>
<circle cx="22.5" cy="197.1" r="1.15" fill="#94a3b8" fill-opacity="0.32"/>
<circle cx="38.7" cy="193.6" r="1.15" fill="#94a3b8" fill-opacity="0.32"/>
<circle cx="107.6" cy="199.2" r="1.15" fill="#94a3b8" fill-opacity="0.32"/>
<circle cx="223.8" cy="207.5" r="1.15" fill="#94a3b8" fill-opacity="0.32"/>
<circle cx="65.6" cy="133.4" r="1.15" fill="#94a3b8" fill-opacity="0.32"/>
<circle cx="50.9" cy="195.5" r="1.15" fill="#94a3b8" fill-opacity="0.32"/>
<circle cx="30.9" cy="196.4" r="1.15" fill="#94a3b8" fill-opacity="0.32"/>
<circle cx="167.7" cy="127.7" r="1.15" fill="#94a3b8" fill-opacity="0.32"/>
<circle cx="41.8" cy="141.9" r="1.15" fill="#94a3b8" fill-opacity="0.32"/>
<circle cx="43.0" cy="121.2" r="1.15" fill="#94a3b8" fill-opacity="0.32"/>
<circle cx="39.4" cy="196.4" r="1.15" fill="#94a3b8" fill-opacity="0.32"/>
<circle cx="96.0" cy="125.9" r="1.15" fill="#94a3b8" fill-opacity="0.32"/>
<path d="M22.0,230.0L26.3,222.8M22.0,230.0L27.1,214.2M22.0,230.0L22.5,227.2M22.0,230.0L24.1,225.1M22.0,230.0L61.8,201.5M22.0,230.0L30.6,225.0M22.0,230.0L32.4,216.3M22.0,230.0L22.2,228.0M22.0,230.0L37.2,211.3M22.0,230.0L46.1,218.2M22.0,230.0L26.0,225.1M22.0,230.0L39.2,226.5M22.0,230.0L45.5,204.4M22.0,230.0L35.1,210.2M22.0,230.0L45.7,219.0M22.0,230.0L29.6,198.7M22.0,230.0L80.8,204.4M22.0,230.0L39.6,218.5M22.0,230.0L26.2,223.9M22.0,230.0L42.8,226.0M22.0,230.0L49.1,225.3M22.0,230.0L81.3,199.7M22.0,230.0L66.9,222.8M22.0,230.0L23.7,225.9M22.0,230.0L42.9,205.0M22.0,230.0L29.4,211.9M22.0,230.0L23.8,227.1M22.0,230.0L67.2,213.7M22.0,230.0L28.4,221.5M22.0,230.0L26.7,222.2M22.0,230.0L48.1,222.5M22.0,230.0L35.6,209.3M22.0,230.0L58.2,198.3M22.0,230.0L23.8,224.8M22.0,230.0L28.0,216.6M22.0,230.0L23.4,221.9M22.0,230.0L31.2,206.9M22.0,230.0L22.1,229.9M22.0,230.0L32.9,198.6M22.0,230.0L37.6,225.9M22.0,230.0L36.8,208.0M22.0,230.0L50.2,209.3M22.0,230.0L28.7,199.6M22.0,230.0L35.4,220.5M22.0,230.0L51.2,215.0M22.0,230.0L73.5,214.7M22.0,230.0L31.3,218.2M22.0,230.0L25.5,223.4M22.0,230.0L22.3,229.5M22.0,230.0L30.5,219.3M22.0,230.0L25.8,228.0M22.0,230.0L70.6,214.9M22.0,230.0L30.0,226.7M22.0,230.0L31.6,217.9M22.0,230.0L24.2,220.3M22.0,230.0L49.4,225.0M22.0,230.0L95.7,199.6M22.0,230.0L97.8,218.0M22.0,230.0L84.5,205.5M22.0,230.0L47.5,216.5M22.0,230.0L23.0,215.8M22.0,230.0L92.2,216.7M22.0,230.0L31.5,226.0M22.0,230.0L39.3,208.5M22.0,230.0L22.5,217.9M22.0,230.0L67.4,206.9M22.0,230.0L78.7,207.4M22.0,230.0L31.0,222.1M22.0,230.0L61.4,215.8M22.0,230.0L23.1,226.6M22.0,230.0L26.7,217.2M22.0,230.0L36.0,227.5M22.0,230.0L60.5,203.4M22.0,230.0L31.1,222.3M22.0,230.0L50.5,211.2M22.0,230.0L31.5,224.9M22.0,230.0L38.3,223.6M22.0,230.0L55.4,212.6M22.0,230.0L45.8,199.4M22.0,230.0L22.2,229.8M22.0,230.0L23.6,228.1M22.0,230.0L59.6,206.9M22.0,230.0L31.2,220.7M22.0,230.0L28.5,215.8" stroke="#0284c7" stroke-opacity="0.085" stroke-width="0.5" fill="none"/>
<circle cx="26.3" cy="222.8" r="1.7" fill="#0284c7" fill-opacity="0.95"/>
<circle cx="27.1" cy="214.2" r="1.7" fill="#0284c7" fill-opacity="0.95"/>
<circle cx="22.5" cy="227.2" r="1.7" fill="#0284c7" fill-opacity="0.95"/>
<circle cx="24.1" cy="225.1" r="1.7" fill="#0284c7" fill-opacity="0.95"/>
<circle cx="61.8" cy="201.5" r="1.7" fill="#0284c7" fill-opacity="0.95"/>
<circle cx="30.6" cy="225.0" r="1.7" fill="#0284c7" fill-opacity="0.95"/>
<circle cx="32.4" cy="216.3" r="1.7" fill="#0284c7" fill-opacity="0.95"/>
<circle cx="22.2" cy="228.0" r="1.7" fill="#0284c7" fill-opacity="0.95"/>
<circle cx="37.2" cy="211.3" r="1.7" fill="#0284c7" fill-opacity="0.95"/>
<circle cx="46.1" cy="218.2" r="1.7" fill="#0284c7" fill-opacity="0.95"/>
<circle cx="26.0" cy="225.1" r="1.7" fill="#0284c7" fill-opacity="0.95"/>
<circle cx="39.2" cy="226.5" r="1.7" fill="#0284c7" fill-opacity="0.95"/>
<circle cx="45.5" cy="204.4" r="1.7" fill="#0284c7" fill-opacity="0.95"/>
<circle cx="35.1" cy="210.2" r="1.7" fill="#0284c7" fill-opacity="0.95"/>
<circle cx="45.7" cy="219.0" r="1.7" fill="#0284c7" fill-opacity="0.95"/>
<circle cx="29.6" cy="198.7" r="1.7" fill="#0284c7" fill-opacity="0.95"/>
<circle cx="80.8" cy="204.4" r="1.7" fill="#0284c7" fill-opacity="0.95"/>
<circle cx="39.6" cy="218.5" r="1.7" fill="#0284c7" fill-opacity="0.95"/>
<circle cx="26.2" cy="223.9" r="1.7" fill="#0284c7" fill-opacity="0.95"/>
<circle cx="42.8" cy="226.0" r="1.7" fill="#0284c7" fill-opacity="0.95"/>
<circle cx="49.1" cy="225.3" r="1.7" fill="#0284c7" fill-opacity="0.95"/>
<circle cx="81.3" cy="199.7" r="1.7" fill="#0284c7" fill-opacity="0.95"/>
<circle cx="66.9" cy="222.8" r="1.7" fill="#0284c7" fill-opacity="0.95"/>
<circle cx="23.7" cy="225.9" r="1.7" fill="#0284c7" fill-opacity="0.95"/>
<circle cx="42.9" cy="205.0" r="1.7" fill="#0284c7" fill-opacity="0.95"/>
<circle cx="29.4" cy="211.9" r="1.7" fill="#0284c7" fill-opacity="0.95"/>
<circle cx="23.8" cy="227.1" r="1.7" fill="#0284c7" fill-opacity="0.95"/>
<circle cx="67.2" cy="213.7" r="1.7" fill="#0284c7" fill-opacity="0.95"/>
<circle cx="28.4" cy="221.5" r="1.7" fill="#0284c7" fill-opacity="0.95"/>
<circle cx="26.7" cy="222.2" r="1.7" fill="#0284c7" fill-opacity="0.95"/>
<circle cx="48.1" cy="222.5" r="1.7" fill="#0284c7" fill-opacity="0.95"/>
<circle cx="35.6" cy="209.3" r="1.7" fill="#0284c7" fill-opacity="0.95"/>
<circle cx="58.2" cy="198.3" r="1.7" fill="#0284c7" fill-opacity="0.95"/>
<circle cx="23.8" cy="224.8" r="1.7" fill="#0284c7" fill-opacity="0.95"/>
<circle cx="28.0" cy="216.6" r="1.7" fill="#0284c7" fill-opacity="0.95"/>
<circle cx="23.4" cy="221.9" r="1.7" fill="#0284c7" fill-opacity="0.95"/>
<circle cx="31.2" cy="206.9" r="1.7" fill="#0284c7" fill-opacity="0.95"/>
<circle cx="22.1" cy="229.9" r="1.7" fill="#0284c7" fill-opacity="0.95"/>
<circle cx="32.9" cy="198.6" r="1.7" fill="#0284c7" fill-opacity="0.95"/>
<circle cx="37.6" cy="225.9" r="1.7" fill="#0284c7" fill-opacity="0.95"/>
<circle cx="36.8" cy="208.0" r="1.7" fill="#0284c7" fill-opacity="0.95"/>
<circle cx="50.2" cy="209.3" r="1.7" fill="#0284c7" fill-opacity="0.95"/>
<circle cx="28.7" cy="199.6" r="1.7" fill="#0284c7" fill-opacity="0.95"/>
<circle cx="35.4" cy="220.5" r="1.7" fill="#0284c7" fill-opacity="0.95"/>
<circle cx="51.2" cy="215.0" r="1.7" fill="#0284c7" fill-opacity="0.95"/>
<circle cx="73.5" cy="214.7" r="1.7" fill="#0284c7" fill-opacity="0.95"/>
<circle cx="31.3" cy="218.2" r="1.7" fill="#0284c7" fill-opacity="0.95"/>
<circle cx="25.5" cy="223.4" r="1.7" fill="#0284c7" fill-opacity="0.95"/>
<circle cx="22.3" cy="229.5" r="1.7" fill="#0284c7" fill-opacity="0.95"/>
<circle cx="30.5" cy="219.3" r="1.7" fill="#0284c7" fill-opacity="0.95"/>
<circle cx="25.8" cy="228.0" r="1.7" fill="#0284c7" fill-opacity="0.95"/>
<circle cx="70.6" cy="214.9" r="1.7" fill="#0284c7" fill-opacity="0.95"/>
<circle cx="30.0" cy="226.7" r="1.7" fill="#0284c7" fill-opacity="0.95"/>
<circle cx="31.6" cy="217.9" r="1.7" fill="#0284c7" fill-opacity="0.95"/>
<circle cx="24.2" cy="220.3" r="1.7" fill="#0284c7" fill-opacity="0.95"/>
<circle cx="49.4" cy="225.0" r="1.7" fill="#0284c7" fill-opacity="0.95"/>
<circle cx="95.7" cy="199.6" r="1.7" fill="#0284c7" fill-opacity="0.95"/>
<circle cx="97.8" cy="218.0" r="1.7" fill="#0284c7" fill-opacity="0.95"/>
<circle cx="84.5" cy="205.5" r="1.7" fill="#0284c7" fill-opacity="0.95"/>
<circle cx="47.5" cy="216.5" r="1.7" fill="#0284c7" fill-opacity="0.95"/>
<circle cx="23.0" cy="215.8" r="1.7" fill="#0284c7" fill-opacity="0.95"/>
<circle cx="92.2" cy="216.7" r="1.7" fill="#0284c7" fill-opacity="0.95"/>
<circle cx="31.5" cy="226.0" r="1.7" fill="#0284c7" fill-opacity="0.95"/>
<circle cx="39.3" cy="208.5" r="1.7" fill="#0284c7" fill-opacity="0.95"/>
<circle cx="22.5" cy="217.9" r="1.7" fill="#0284c7" fill-opacity="0.95"/>
<circle cx="67.4" cy="206.9" r="1.7" fill="#0284c7" fill-opacity="0.95"/>
<circle cx="78.7" cy="207.4" r="1.7" fill="#0284c7" fill-opacity="0.95"/>
<circle cx="31.0" cy="222.1" r="1.7" fill="#0284c7" fill-opacity="0.95"/>
<circle cx="61.4" cy="215.8" r="1.7" fill="#0284c7" fill-opacity="0.95"/>
<circle cx="23.1" cy="226.6" r="1.7" fill="#0284c7" fill-opacity="0.95"/>
<circle cx="26.7" cy="217.2" r="1.7" fill="#0284c7" fill-opacity="0.95"/>
<circle cx="36.0" cy="227.5" r="1.7" fill="#0284c7" fill-opacity="0.95"/>
<circle cx="60.5" cy="203.4" r="1.7" fill="#0284c7" fill-opacity="0.95"/>
<circle cx="31.1" cy="222.3" r="1.7" fill="#0284c7" fill-opacity="0.95"/>
<circle cx="50.5" cy="211.2" r="1.7" fill="#0284c7" fill-opacity="0.95"/>
<circle cx="31.5" cy="224.9" r="1.7" fill="#0284c7" fill-opacity="0.95"/>
<circle cx="38.3" cy="223.6" r="1.7" fill="#0284c7" fill-opacity="0.95"/>
<circle cx="55.4" cy="212.6" r="1.7" fill="#0284c7" fill-opacity="0.95"/>
<circle cx="45.8" cy="199.4" r="1.7" fill="#0284c7" fill-opacity="0.95"/>
<circle cx="22.2" cy="229.8" r="1.7" fill="#0284c7" fill-opacity="0.95"/>
<circle cx="23.6" cy="228.1" r="1.7" fill="#0284c7" fill-opacity="0.95"/>
<circle cx="59.6" cy="206.9" r="1.7" fill="#0284c7" fill-opacity="0.95"/>
<circle cx="31.2" cy="220.7" r="1.7" fill="#0284c7" fill-opacity="0.95"/>
<circle cx="28.5" cy="215.8" r="1.7" fill="#0284c7" fill-opacity="0.95"/>
<path d="M22.0,230.0L138.3,213.1M22.0,230.0L46.8,160.2M22.0,230.0L37.7,146.7M22.0,230.0L76.5,148.8M22.0,230.0L32.3,170.6M22.0,230.0L71.0,189.8M22.0,230.0L186.5,215.1M22.0,230.0L35.8,168.8M22.0,230.0L146.9,145.9M22.0,230.0L97.8,164.2M22.0,230.0L23.6,160.2M22.0,230.0L125.8,204.0M22.0,230.0L48.6,161.2M22.0,230.0L36.2,161.6M22.0,230.0L162.5,162.1M22.0,230.0L154.4,176.8M22.0,230.0L73.8,167.8M22.0,230.0L178.1,151.2M22.0,230.0L134.6,204.0M22.0,230.0L117.2,158.9M22.0,230.0L153.5,174.2M22.0,230.0L161.7,209.7M22.0,230.0L101.4,153.5M22.0,230.0L40.9,188.2M22.0,230.0L38.0,178.2M22.0,230.0L168.9,169.8M22.0,230.0L146.9,188.3M22.0,230.0L29.2,191.9M22.0,230.0L186.4,201.9M22.0,230.0L44.0,165.0M22.0,230.0L40.7,159.4M22.0,230.0L80.7,147.7M22.0,230.0L38.6,171.2M22.0,230.0L86.1,171.8M22.0,230.0L31.4,161.8M22.0,230.0L35.3,181.6M22.0,230.0L42.4,181.7M22.0,230.0L72.4,178.3M22.0,230.0L24.2,167.4M22.0,230.0L109.1,151.7M22.0,230.0L44.5,161.7M22.0,230.0L141.8,161.2M22.0,230.0L24.4,186.5M22.0,230.0L31.4,154.2M22.0,230.0L81.8,151.5M22.0,230.0L49.5,189.4M22.0,230.0L30.1,190.7M22.0,230.0L71.1,185.2M22.0,230.0L91.2,179.1M22.0,230.0L161.9,185.5M22.0,230.0L153.3,203.3M22.0,230.0L99.3,149.0M22.0,230.0L141.1,215.8M22.0,230.0L72.2,187.3M22.0,230.0L141.1,156.6M22.0,230.0L46.2,151.8M22.0,230.0L154.3,168.7M22.0,230.0L158.8,195.0M22.0,230.0L76.6,158.0M22.0,230.0L148.8,173.9M22.0,230.0L81.6,192.0M22.0,230.0L107.8,162.8M22.0,230.0L122.0,146.5M22.0,230.0L47.3,186.9M22.0,230.0L77.7,147.4M22.0,230.0L45.3,189.8M22.0,230.0L127.0,150.6M22.0,230.0L147.3,186.9M22.0,230.0L49.4,180.7M22.0,230.0L46.5,156.8M22.0,230.0L41.0,185.8M22.0,230.0L116.6,214.8M22.0,230.0L63.1,146.0" stroke="#c2740a" stroke-opacity="0.085" stroke-width="0.5" fill="none"/>
<circle cx="138.3" cy="213.1" r="1.7" fill="#c2740a" fill-opacity="0.95"/>
<circle cx="46.8" cy="160.2" r="1.7" fill="#c2740a" fill-opacity="0.95"/>
<circle cx="37.7" cy="146.7" r="1.7" fill="#c2740a" fill-opacity="0.95"/>
<circle cx="76.5" cy="148.8" r="1.7" fill="#c2740a" fill-opacity="0.95"/>
<circle cx="32.3" cy="170.6" r="1.7" fill="#c2740a" fill-opacity="0.95"/>
<circle cx="71.0" cy="189.8" r="1.7" fill="#c2740a" fill-opacity="0.95"/>
<circle cx="186.5" cy="215.1" r="1.7" fill="#c2740a" fill-opacity="0.95"/>
<circle cx="35.8" cy="168.8" r="1.7" fill="#c2740a" fill-opacity="0.95"/>
<circle cx="146.9" cy="145.9" r="1.7" fill="#c2740a" fill-opacity="0.95"/>
<circle cx="97.8" cy="164.2" r="1.7" fill="#c2740a" fill-opacity="0.95"/>
<circle cx="23.6" cy="160.2" r="1.7" fill="#c2740a" fill-opacity="0.95"/>
<circle cx="125.8" cy="204.0" r="1.7" fill="#c2740a" fill-opacity="0.95"/>
<circle cx="48.6" cy="161.2" r="1.7" fill="#c2740a" fill-opacity="0.95"/>
<circle cx="36.2" cy="161.6" r="1.7" fill="#c2740a" fill-opacity="0.95"/>
<circle cx="162.5" cy="162.1" r="1.7" fill="#c2740a" fill-opacity="0.95"/>
<circle cx="154.4" cy="176.8" r="1.7" fill="#c2740a" fill-opacity="0.95"/>
<circle cx="73.8" cy="167.8" r="1.7" fill="#c2740a" fill-opacity="0.95"/>
<circle cx="178.1" cy="151.2" r="1.7" fill="#c2740a" fill-opacity="0.95"/>
<circle cx="134.6" cy="204.0" r="1.7" fill="#c2740a" fill-opacity="0.95"/>
<circle cx="117.2" cy="158.9" r="1.7" fill="#c2740a" fill-opacity="0.95"/>
<circle cx="153.5" cy="174.2" r="1.7" fill="#c2740a" fill-opacity="0.95"/>
<circle cx="161.7" cy="209.7" r="1.7" fill="#c2740a" fill-opacity="0.95"/>
<circle cx="101.4" cy="153.5" r="1.7" fill="#c2740a" fill-opacity="0.95"/>
<circle cx="40.9" cy="188.2" r="1.7" fill="#c2740a" fill-opacity="0.95"/>
<circle cx="38.0" cy="178.2" r="1.7" fill="#c2740a" fill-opacity="0.95"/>
<circle cx="168.9" cy="169.8" r="1.7" fill="#c2740a" fill-opacity="0.95"/>
<circle cx="146.9" cy="188.3" r="1.7" fill="#c2740a" fill-opacity="0.95"/>
<circle cx="29.2" cy="191.9" r="1.7" fill="#c2740a" fill-opacity="0.95"/>
<circle cx="186.4" cy="201.9" r="1.7" fill="#c2740a" fill-opacity="0.95"/>
<circle cx="44.0" cy="165.0" r="1.7" fill="#c2740a" fill-opacity="0.95"/>
<circle cx="40.7" cy="159.4" r="1.7" fill="#c2740a" fill-opacity="0.95"/>
<circle cx="80.7" cy="147.7" r="1.7" fill="#c2740a" fill-opacity="0.95"/>
<circle cx="38.6" cy="171.2" r="1.7" fill="#c2740a" fill-opacity="0.95"/>
<circle cx="86.1" cy="171.8" r="1.7" fill="#c2740a" fill-opacity="0.95"/>
<circle cx="31.4" cy="161.8" r="1.7" fill="#c2740a" fill-opacity="0.95"/>
<circle cx="35.3" cy="181.6" r="1.7" fill="#c2740a" fill-opacity="0.95"/>
<circle cx="42.4" cy="181.7" r="1.7" fill="#c2740a" fill-opacity="0.95"/>
<circle cx="72.4" cy="178.3" r="1.7" fill="#c2740a" fill-opacity="0.95"/>
<circle cx="24.2" cy="167.4" r="1.7" fill="#c2740a" fill-opacity="0.95"/>
<circle cx="109.1" cy="151.7" r="1.7" fill="#c2740a" fill-opacity="0.95"/>
<circle cx="44.5" cy="161.7" r="1.7" fill="#c2740a" fill-opacity="0.95"/>
<circle cx="141.8" cy="161.2" r="1.7" fill="#c2740a" fill-opacity="0.95"/>
<circle cx="24.4" cy="186.5" r="1.7" fill="#c2740a" fill-opacity="0.95"/>
<circle cx="31.4" cy="154.2" r="1.7" fill="#c2740a" fill-opacity="0.95"/>
<circle cx="81.8" cy="151.5" r="1.7" fill="#c2740a" fill-opacity="0.95"/>
<circle cx="49.5" cy="189.4" r="1.7" fill="#c2740a" fill-opacity="0.95"/>
<circle cx="30.1" cy="190.7" r="1.7" fill="#c2740a" fill-opacity="0.95"/>
<circle cx="71.1" cy="185.2" r="1.7" fill="#c2740a" fill-opacity="0.95"/>
<circle cx="91.2" cy="179.1" r="1.7" fill="#c2740a" fill-opacity="0.95"/>
<circle cx="161.9" cy="185.5" r="1.7" fill="#c2740a" fill-opacity="0.95"/>
<circle cx="153.3" cy="203.3" r="1.7" fill="#c2740a" fill-opacity="0.95"/>
<circle cx="99.3" cy="149.0" r="1.7" fill="#c2740a" fill-opacity="0.95"/>
<circle cx="141.1" cy="215.8" r="1.7" fill="#c2740a" fill-opacity="0.95"/>
<circle cx="72.2" cy="187.3" r="1.7" fill="#c2740a" fill-opacity="0.95"/>
<circle cx="141.1" cy="156.6" r="1.7" fill="#c2740a" fill-opacity="0.95"/>
<circle cx="46.2" cy="151.8" r="1.7" fill="#c2740a" fill-opacity="0.95"/>
<circle cx="154.3" cy="168.7" r="1.7" fill="#c2740a" fill-opacity="0.95"/>
<circle cx="158.8" cy="195.0" r="1.7" fill="#c2740a" fill-opacity="0.95"/>
<circle cx="76.6" cy="158.0" r="1.7" fill="#c2740a" fill-opacity="0.95"/>
<circle cx="148.8" cy="173.9" r="1.7" fill="#c2740a" fill-opacity="0.95"/>
<circle cx="81.6" cy="192.0" r="1.7" fill="#c2740a" fill-opacity="0.95"/>
<circle cx="107.8" cy="162.8" r="1.7" fill="#c2740a" fill-opacity="0.95"/>
<circle cx="122.0" cy="146.5" r="1.7" fill="#c2740a" fill-opacity="0.95"/>
<circle cx="47.3" cy="186.9" r="1.7" fill="#c2740a" fill-opacity="0.95"/>
<circle cx="77.7" cy="147.4" r="1.7" fill="#c2740a" fill-opacity="0.95"/>
<circle cx="45.3" cy="189.8" r="1.7" fill="#c2740a" fill-opacity="0.95"/>
<circle cx="127.0" cy="150.6" r="1.7" fill="#c2740a" fill-opacity="0.95"/>
<circle cx="147.3" cy="186.9" r="1.7" fill="#c2740a" fill-opacity="0.95"/>
<circle cx="49.4" cy="180.7" r="1.7" fill="#c2740a" fill-opacity="0.95"/>
<circle cx="46.5" cy="156.8" r="1.7" fill="#c2740a" fill-opacity="0.95"/>
<circle cx="41.0" cy="185.8" r="1.7" fill="#c2740a" fill-opacity="0.95"/>
<circle cx="116.6" cy="214.8" r="1.7" fill="#c2740a" fill-opacity="0.95"/>
<circle cx="63.1" cy="146.0" r="1.7" fill="#c2740a" fill-opacity="0.95"/>
<path d="M22.0,230.0L160.7,46.4M22.0,230.0L208.8,48.6M22.0,230.0L169.0,64.4M22.0,230.0L194.5,196.4M22.0,230.0L260.5,94.1M22.0,230.0L303.2,32.2M22.0,230.0L282.4,114.9M22.0,230.0L199.4,157.9M22.0,230.0L35.7,110.8M22.0,230.0L213.6,119.4M22.0,230.0L228.4,166.9M22.0,230.0L171.9,19.8M22.0,230.0L274.2,62.3M22.0,230.0L64.4,86.2M22.0,230.0L275.9,98.4M22.0,230.0L70.0,31.1M22.0,230.0L63.2,47.5M22.0,230.0L95.4,21.9M22.0,230.0L65.1,107.0M22.0,230.0L200.8,138.7M22.0,230.0L148.6,58.6M22.0,230.0L238.3,132.5M22.0,230.0L49.7,49.2M22.0,230.0L77.4,93.6M22.0,230.0L280.0,142.0M22.0,230.0L131.3,60.1M22.0,230.0L269.5,195.0M22.0,230.0L325.8,125.0M22.0,230.0L22.7,73.7M22.0,230.0L195.5,140.3M22.0,230.0L239.5,198.9M22.0,230.0L324.7,187.7M22.0,230.0L106.1,72.4M22.0,230.0L236.1,158.2M22.0,230.0L235.7,141.1M22.0,230.0L182.3,102.2M22.0,230.0L123.0,59.1M22.0,230.0L270.9,116.3M22.0,230.0L286.3,117.0M22.0,230.0L214.7,127.8M22.0,230.0L269.2,142.9M22.0,230.0L294.7,158.9M22.0,230.0L135.4,111.7M22.0,230.0L335.9,169.4M22.0,230.0L260.6,165.5M22.0,230.0L163.5,24.8M22.0,230.0L339.8,191.7M22.0,230.0L76.7,102.0" stroke="#db2777" stroke-opacity="0.085" stroke-width="0.5" fill="none"/>
<circle cx="160.7" cy="46.4" r="1.7" fill="#db2777" fill-opacity="0.95"/>
<circle cx="208.8" cy="48.6" r="1.7" fill="#db2777" fill-opacity="0.95"/>
<circle cx="169.0" cy="64.4" r="1.7" fill="#db2777" fill-opacity="0.95"/>
<circle cx="194.5" cy="196.4" r="1.7" fill="#db2777" fill-opacity="0.95"/>
<circle cx="260.5" cy="94.1" r="1.7" fill="#db2777" fill-opacity="0.95"/>
<circle cx="303.2" cy="32.2" r="1.7" fill="#db2777" fill-opacity="0.95"/>
<circle cx="282.4" cy="114.9" r="1.7" fill="#db2777" fill-opacity="0.95"/>
<circle cx="199.4" cy="157.9" r="1.7" fill="#db2777" fill-opacity="0.95"/>
<circle cx="35.7" cy="110.8" r="1.7" fill="#db2777" fill-opacity="0.95"/>
<circle cx="213.6" cy="119.4" r="1.7" fill="#db2777" fill-opacity="0.95"/>
<circle cx="228.4" cy="166.9" r="1.7" fill="#db2777" fill-opacity="0.95"/>
<circle cx="171.9" cy="19.8" r="1.7" fill="#db2777" fill-opacity="0.95"/>
<circle cx="274.2" cy="62.3" r="1.7" fill="#db2777" fill-opacity="0.95"/>
<circle cx="64.4" cy="86.2" r="1.7" fill="#db2777" fill-opacity="0.95"/>
<circle cx="275.9" cy="98.4" r="1.7" fill="#db2777" fill-opacity="0.95"/>
<circle cx="70.0" cy="31.1" r="1.7" fill="#db2777" fill-opacity="0.95"/>
<circle cx="63.2" cy="47.5" r="1.7" fill="#db2777" fill-opacity="0.95"/>
<circle cx="95.4" cy="21.9" r="1.7" fill="#db2777" fill-opacity="0.95"/>
<circle cx="65.1" cy="107.0" r="1.7" fill="#db2777" fill-opacity="0.95"/>
<circle cx="200.8" cy="138.7" r="1.7" fill="#db2777" fill-opacity="0.95"/>
<circle cx="148.6" cy="58.6" r="1.7" fill="#db2777" fill-opacity="0.95"/>
<circle cx="238.3" cy="132.5" r="1.7" fill="#db2777" fill-opacity="0.95"/>
<circle cx="49.7" cy="49.2" r="1.7" fill="#db2777" fill-opacity="0.95"/>
<circle cx="77.4" cy="93.6" r="1.7" fill="#db2777" fill-opacity="0.95"/>
<circle cx="280.0" cy="142.0" r="1.7" fill="#db2777" fill-opacity="0.95"/>
<circle cx="131.3" cy="60.1" r="1.7" fill="#db2777" fill-opacity="0.95"/>
<circle cx="269.5" cy="195.0" r="1.7" fill="#db2777" fill-opacity="0.95"/>
<circle cx="325.8" cy="125.0" r="1.7" fill="#db2777" fill-opacity="0.95"/>
<circle cx="22.7" cy="73.7" r="1.7" fill="#db2777" fill-opacity="0.95"/>
<circle cx="195.5" cy="140.3" r="1.7" fill="#db2777" fill-opacity="0.95"/>
<circle cx="239.5" cy="198.9" r="1.7" fill="#db2777" fill-opacity="0.95"/>
<circle cx="324.7" cy="187.7" r="1.7" fill="#db2777" fill-opacity="0.95"/>
<circle cx="106.1" cy="72.4" r="1.7" fill="#db2777" fill-opacity="0.95"/>
<circle cx="236.1" cy="158.2" r="1.7" fill="#db2777" fill-opacity="0.95"/>
<circle cx="235.7" cy="141.1" r="1.7" fill="#db2777" fill-opacity="0.95"/>
<circle cx="182.3" cy="102.2" r="1.7" fill="#db2777" fill-opacity="0.95"/>
<circle cx="123.0" cy="59.1" r="1.7" fill="#db2777" fill-opacity="0.95"/>
<circle cx="270.9" cy="116.3" r="1.7" fill="#db2777" fill-opacity="0.95"/>
<circle cx="286.3" cy="117.0" r="1.7" fill="#db2777" fill-opacity="0.95"/>
<circle cx="214.7" cy="127.8" r="1.7" fill="#db2777" fill-opacity="0.95"/>
<circle cx="269.2" cy="142.9" r="1.7" fill="#db2777" fill-opacity="0.95"/>
<circle cx="294.7" cy="158.9" r="1.7" fill="#db2777" fill-opacity="0.95"/>
<circle cx="135.4" cy="111.7" r="1.7" fill="#db2777" fill-opacity="0.95"/>
<circle cx="335.9" cy="169.4" r="1.7" fill="#db2777" fill-opacity="0.95"/>
<circle cx="260.6" cy="165.5" r="1.7" fill="#db2777" fill-opacity="0.95"/>
<circle cx="163.5" cy="24.8" r="1.7" fill="#db2777" fill-opacity="0.95"/>
<circle cx="339.8" cy="191.7" r="1.7" fill="#db2777" fill-opacity="0.95"/>
<circle cx="76.7" cy="102.0" r="1.7" fill="#db2777" fill-opacity="0.95"/>
<circle cx="22.0" cy="230.0" r="2.6" fill="#0f172a" fill-opacity="0.75"/>
<circle cx="22.0" cy="230.0" r="2.6" fill="none" stroke="#94a3b8" stroke-width="0.8"/>
<text x="18.0" y="232.6" text-anchor="end" font-family="ui-monospace,SFMono-Regular,Menlo,monospace" font-size="7.5" fill="#94a3b8">0</text>
<text x="18.0" y="174.2" text-anchor="end" font-family="ui-monospace,SFMono-Regular,Menlo,monospace" font-size="7.5" fill="#94a3b8">2</text>
<text x="18.0" y="115.8" text-anchor="end" font-family="ui-monospace,SFMono-Regular,Menlo,monospace" font-size="7.5" fill="#94a3b8">4</text>
<text x="18.0" y="57.3" text-anchor="end" font-family="ui-monospace,SFMono-Regular,Menlo,monospace" font-size="7.5" fill="#94a3b8">6</text>
<text x="18.0" y="14.0" text-anchor="end" font-family="ui-monospace,SFMono-Regular,Menlo,monospace" font-size="7.5" fill="#94a3b8">r, m</text>
<text x="22.0" y="241.0" text-anchor="middle" font-family="ui-monospace,SFMono-Regular,Menlo,monospace" font-size="7.5" fill="#94a3b8">0</text>
<text x="138.8" y="241.0" text-anchor="middle" font-family="ui-monospace,SFMono-Regular,Menlo,monospace" font-size="7.5" fill="#94a3b8">4</text>
<text x="255.7" y="241.0" text-anchor="middle" font-family="ui-monospace,SFMono-Regular,Menlo,monospace" font-size="7.5" fill="#94a3b8">8</text>
<text x="343.3" y="241.0" text-anchor="end" font-family="ui-monospace,SFMono-Regular,Menlo,monospace" font-size="7.5" fill="#94a3b8">beam axis, m</text>
</svg>